<svg width="81" height="80" viewBox="0 0 81 80" fill="none" xmlns="http://www.w3.org/2000/svg">
<path d="M74.0952 0H69.581H50.8031H48.9151C43.3886 0 40.6248 6.65563 44.5386 10.5455L69.7019 35.5623C70.3506 36.2072 71.0789 36.654 71.8363 36.9506C71.8279 36.9542 71.8207 36.959 71.8122 36.9614C71.8859 36.9902 71.9608 37.0082 72.0357 37.0347C72.107 37.0599 72.1782 37.0827 72.2495 37.1043C72.4657 37.1716 72.6831 37.2256 72.903 37.2676C72.9597 37.2785 73.0166 37.2905 73.0734 37.3001C73.3355 37.3421 73.5975 37.3685 73.8597 37.3769C73.873 37.3769 73.8875 37.3793 73.9008 37.3793C74.4758 37.3925 75.0471 37.3241 75.5992 37.1824C75.6414 37.1716 75.6825 37.1572 75.7236 37.1452C75.9447 37.0839 76.1621 37.0118 76.3747 36.9266C76.4411 36.9002 76.5064 36.8713 76.5728 36.8425C76.7601 36.7609 76.9425 36.6708 77.12 36.5711C77.1889 36.5327 77.2577 36.4954 77.3254 36.4546C77.5029 36.3465 77.6745 36.2288 77.8412 36.1039C77.8967 36.0631 77.9535 36.0259 78.0067 35.9826C78.2217 35.8109 78.427 35.6272 78.6179 35.4266C78.6288 35.4158 78.6373 35.4026 78.6481 35.3906C78.8233 35.2044 78.9863 35.0051 79.1373 34.7961C79.1917 34.7216 79.2388 34.6412 79.2896 34.5631C79.391 34.4094 79.4876 34.2521 79.5746 34.0876C79.6253 33.9927 79.6713 33.8954 79.716 33.7969C79.7908 33.6348 79.8585 33.4679 79.9201 33.2973C79.9563 33.194 79.9938 33.092 80.0252 32.9851C80.0807 32.7977 80.1243 32.6032 80.1617 32.405C80.1798 32.3078 80.204 32.2153 80.2185 32.1156C80.262 31.8166 80.2885 31.5091 80.2885 31.1909V29.3138V6.17405C80.2909 2.76338 77.5102 0 74.0952 0Z" fill="#2563EB"/>
<path d="M31.6845 42.619H27.1703H8.39234H6.50429C0.977812 42.619 -1.78601 49.2747 2.12782 53.1645L27.2911 78.1814C27.9398 78.8263 28.6682 79.273 29.4256 79.5697C29.4171 79.5733 29.4099 79.5781 29.4015 79.5805C29.4751 79.6093 29.55 79.6273 29.6237 79.6525C29.6961 79.6777 29.7674 79.7005 29.8399 79.7234C30.0549 79.7906 30.2724 79.8446 30.491 79.8867C30.549 79.8975 30.6058 79.9107 30.6626 79.9191C30.9235 79.9611 31.1856 79.9876 31.4477 79.996C31.461 79.996 31.4755 79.9984 31.49 79.9984C32.065 80.0116 32.6364 79.9431 33.1885 79.8014C33.2307 79.7906 33.2718 79.7762 33.3141 79.7642C33.5352 79.7029 33.7526 79.6309 33.9652 79.5456C34.0316 79.5192 34.0968 79.4904 34.1621 79.4627C34.3493 79.3811 34.5317 79.291 34.7093 79.1914C34.7781 79.1529 34.8482 79.1157 34.9159 79.0748C35.0934 78.9668 35.265 78.8491 35.4317 78.7242C35.4872 78.6833 35.544 78.6461 35.5984 78.6029C35.8134 78.4311 36.0187 78.2474 36.2096 78.0481C36.2217 78.0361 36.2301 78.0216 36.2422 78.0096C36.4161 77.8235 36.5792 77.6265 36.7302 77.4176C36.7845 77.3431 36.8317 77.2626 36.8824 77.1846C36.9839 77.0309 37.0805 76.8735 37.1675 76.709C37.2182 76.6141 37.2641 76.5156 37.3101 76.4172C37.3849 76.255 37.4526 76.0893 37.513 75.9188C37.5504 75.8155 37.5867 75.7122 37.6181 75.6053C37.6737 75.418 37.7171 75.2234 37.7546 75.0253C37.7727 74.9292 37.7968 74.8355 37.8113 74.7359C37.8548 74.4368 37.8814 74.1294 37.8814 73.8111V71.934V48.7943C37.8814 45.3836 35.1007 42.619 31.6845 42.619Z" fill="#2563EB"/>
<path d="M74.0952 42.619H69.581H50.8031H48.9151C43.3886 42.619 40.6248 49.2747 44.5386 53.1645L69.7019 78.1814C70.3506 78.8263 71.0789 79.273 71.8363 79.5697C71.8279 79.5733 71.8206 79.5781 71.8134 79.5805C71.8871 79.6093 71.962 79.6273 72.0357 79.6525C72.107 79.6777 72.1794 79.7005 72.2519 79.7234C72.4669 79.7906 72.6843 79.8446 72.903 79.8867C72.9597 79.8975 73.0178 79.9107 73.0745 79.9191C73.3355 79.9611 73.5975 79.9876 73.8597 79.996C73.8742 79.996 73.8875 79.9984 73.902 79.9984C74.477 80.0116 75.0484 79.9431 75.6004 79.8014C75.6427 79.7906 75.6837 79.7762 75.7248 79.7642C75.9459 79.7029 76.1633 79.6309 76.3759 79.5456C76.4423 79.5192 76.5064 79.4904 76.5728 79.4627C76.7601 79.3811 76.9424 79.2898 77.1212 79.1914C77.1901 79.1529 77.2602 79.1157 77.3278 79.0748C77.5054 78.9668 77.6769 78.8491 77.8436 78.7242C77.8992 78.6833 77.956 78.6461 78.0103 78.6029C78.2253 78.4311 78.4307 78.2474 78.6215 78.0481C78.6336 78.0361 78.6433 78.0216 78.6542 78.0096C78.8293 77.8235 78.9912 77.6265 79.1422 77.4176C79.1966 77.3431 79.2436 77.2626 79.2944 77.1846C79.3958 77.0309 79.4925 76.8735 79.5795 76.709C79.6302 76.6141 79.6761 76.5168 79.7208 76.4184C79.7957 76.2562 79.8634 76.0905 79.925 75.9188C79.9612 75.8155 79.9986 75.7122 80.03 75.6065C80.0856 75.418 80.1291 75.2246 80.1665 75.0265C80.1846 74.9304 80.2088 74.8367 80.2233 74.737C80.2668 74.438 80.2934 74.1306 80.2934 73.8123V71.9353V48.7955C80.291 45.3836 77.5102 42.619 74.0952 42.619Z" fill="#2563EB"/>
<path d="M31.6845 0H27.1703H8.39234H6.50429C0.977812 0 -1.78601 6.65563 2.12782 10.5455L27.2911 35.5623C27.9398 36.2072 28.6682 36.654 29.4256 36.9506C29.4171 36.9542 29.4099 36.959 29.4015 36.9614C29.4751 36.9902 29.5512 37.0082 29.6249 37.0347C29.6962 37.0599 29.7675 37.0827 29.8387 37.1043C30.055 37.1716 30.2724 37.2256 30.4923 37.2676C30.549 37.2785 30.6046 37.2905 30.6613 37.3001C30.9235 37.3421 31.1856 37.3685 31.4477 37.3769C31.461 37.3769 31.4755 37.3793 31.4888 37.3793C32.0638 37.3925 32.6352 37.3241 33.1872 37.1824C33.2295 37.1716 33.2706 37.1572 33.3128 37.1452C33.5339 37.0839 33.7502 37.0118 33.9628 36.9266C34.0292 36.9002 34.0944 36.8713 34.1609 36.8425C34.3481 36.7609 34.5293 36.6708 34.7081 36.5711C34.7769 36.5327 34.8458 36.4954 34.9134 36.4546C35.0922 36.3465 35.2625 36.2288 35.4292 36.1039C35.4848 36.0631 35.5416 36.0259 35.5947 35.9826C35.8098 35.8109 36.0151 35.6272 36.2071 35.4266C36.218 35.4158 36.2265 35.4026 36.2374 35.3906C36.4125 35.2044 36.5756 35.0051 36.7266 34.7961C36.7809 34.7216 36.8281 34.6412 36.8788 34.5631C36.9803 34.4094 37.0769 34.2521 37.1638 34.0876C37.2146 33.9927 37.2605 33.8942 37.3052 33.7957C37.3801 33.6336 37.4478 33.4679 37.5082 33.2973C37.5444 33.194 37.5818 33.0908 37.6132 32.9851C37.6688 32.7977 37.7123 32.6032 37.7498 32.405C37.7679 32.3078 37.792 32.2153 37.8065 32.1156C37.85 31.8166 37.8766 31.5091 37.8766 31.1909V29.3138V6.17405C37.8814 2.76338 35.1007 0 31.6845 0Z" fill="#2563EB"/>
</svg>
